# Blender v3.1.2 OBJ File: 'robot.blend'
# www.blender.org
mtllib robot.mtl
o Cube
v 1.000000 2.053590 -1.000000
v 1.000000 -1.000000 -1.000000
v 1.000000 2.082239 1.000000
v 1.000000 -1.000000 1.000000
v -1.000000 2.053590 -1.000000
v -1.000000 -1.000000 -1.000000
v -1.000000 2.053590 1.000000
v -1.000000 -1.000000 1.000000
v 0.191963 0.526795 -0.121340
v -0.191963 0.526795 0.121340
v 0.191963 0.526795 0.121340
v -0.191963 0.526795 -0.121340
v -0.346664 3.124932 0.420528
v -0.346664 3.327616 0.420528
v -0.346664 3.124932 -0.727807
v -0.346664 3.327616 -0.727807
v 1.000000 2.283860 1.000000
v 0.594366 2.689495 0.594366
v -0.594366 2.689495 0.594366
v -1.000000 2.283860 1.000000
v 1.000000 2.283860 -1.000000
v 0.594366 2.689495 -0.594366
v -0.594366 2.689495 -0.594366
v -1.000000 2.283860 -1.000000
v 0.490447 3.327616 -0.727807
v 0.490447 3.124932 -0.727807
v 0.490447 3.327616 0.420528
v 0.490447 3.124932 0.420528
vt 0.375000 0.000000
vt 0.625000 0.000000
vt 0.625000 0.250000
vt 0.375000 0.250000
vt 0.500000 0.750000
vt 0.625000 0.750000
vt 0.625000 1.000000
vt 0.500000 1.000000
vt 0.500000 0.000000
vt 0.625000 0.000000
vt 0.625000 0.250000
vt 0.500000 0.250000
vt 0.125000 0.500000
vt 0.375000 0.500000
vt 0.375000 0.750000
vt 0.125000 0.750000
vt 0.500000 0.500000
vt 0.625000 0.500000
vt 0.375000 0.250000
vt 0.375000 0.000000
vt 0.375000 1.000000
vt 0.625000 0.500000
vt 0.625000 0.750000
vt 0.675704 0.550704
vt 0.824296 0.550704
vt 0.824296 0.699296
vt 0.675704 0.699296
vt 0.625000 0.250000
vt 0.625000 0.000000
vt 0.875000 0.750000
vt 0.875000 0.500000
vt 0.625000 1.000000
vt 0.625000 0.500000
vt 0.375000 0.500000
vt 0.625000 0.750000
vt 0.375000 0.750000
vt 0.625000 1.000000
vt 0.375000 1.000000
vt 0.125000 0.500000
vt 0.125000 0.750000
vt 0.875000 0.500000
vt 0.875000 0.750000
vn -1.0000 0.0000 0.0000
vn 0.0060 -0.4953 0.8687
vn -0.8839 -0.4678 0.0000
vn 0.0000 -1.0000 0.0000
vn 0.8856 -0.4644 0.0059
vn 0.0000 -0.4988 -0.8667
vn 0.0000 0.4988 -0.8667
vn 0.8839 0.4678 0.0000
vn -0.8839 0.4678 0.0000
vn 0.0000 0.4988 0.8667
vn 1.0000 0.0000 0.0000
vn 0.0000 1.0000 0.0000
vn 0.0000 0.0000 -1.0000
vn 0.0000 0.7071 0.7071
vn 0.7071 0.7071 0.0000
vn -0.7071 0.7071 0.0000
vn 0.0000 0.7071 -0.7071
vn 0.0000 0.0000 1.0000
usemtl Material
s off
f 16/1/1 15/2/1 13/3/1 14/4/1
f 11/5/2 3/6/2 7/7/2 10/8/2
f 10/9/3 7/10/3 5/11/3 12/12/3
f 6/13/4 2/14/4 4/15/4 8/16/4
f 9/17/5 1/18/5 3/6/5 11/5/5
f 12/12/6 5/11/6 1/18/6 9/17/6
f 6/19/7 12/12/7 9/17/7 2/14/7
f 2/14/8 9/17/8 11/5/8 4/15/8
f 8/20/9 10/9/9 12/12/9 6/19/9
f 4/15/10 11/5/10 10/8/10 8/21/10
f 3/6/11 1/18/11 21/22/11 17/23/11
f 22/24/12 23/25/12 19/26/12 18/27/12
f 1/18/13 5/11/13 24/28/13 21/22/13
f 5/11/1 7/10/1 20/29/1 24/28/1
f 18/27/14 19/26/14 20/30/14 17/23/14
f 22/24/15 18/27/15 17/23/15 21/22/15
f 19/26/16 23/25/16 24/31/16 20/30/16
f 23/25/17 22/24/17 21/22/17 24/31/17
f 7/7/18 3/6/18 17/23/18 20/32/18
f 14/4/18 13/3/18 28/33/18 27/34/18
f 27/34/11 28/33/11 26/35/11 25/36/11
f 25/36/13 26/35/13 15/37/13 16/38/13
f 14/39/12 27/34/12 25/36/12 16/40/12
f 28/33/4 13/41/4 15/42/4 26/35/4
